<svg width="92" height="25" viewBox="0 0 92 25" fill="none" xmlns="http://www.w3.org/2000/svg">
<path d="M49.9981 0H0V8.33355H49.9981V0Z" fill="#00732F"/>
<path d="M49.9981 8.3335H0V16.6664H49.9981V8.3335Z" fill="white"/>
<path d="M49.9981 16.6677H0V25H49.9981V16.6677Z" fill="black"/>
<path d="M12.4994 0H0V25H12.4994V0Z" fill="#FF0000"/>
<path d="M69.2364 17.0283L63.5837 11.4002C63.294 11.1072 63.0548 10.964 62.8649 10.964C62.7243 10.964 62.6406 11.0619 62.618 11.2595C62.618 11.4734 62.7456 11.7197 63.0043 12.0043L68.0477 17.0276H59.5949H58.8281H56.4124V14.8336V12.2953L58.83 12.8949V14.8329H62.4948L61.5316 13.8432C61.1369 13.4432 60.829 13.0394 60.6073 12.6311C60.3869 12.2253 60.2768 11.8559 60.2768 11.5162V11.2219L60.315 10.927L60.4427 10.3599C60.5373 9.92107 60.8076 9.50818 61.2555 9.12187C61.7047 8.73621 62.2148 8.5437 62.7897 8.5437C63.5014 8.5437 64.1671 8.83343 64.8003 9.41355L70.2657 14.82L70.6378 14.829V17.0276H69.2338V17.0237H69.2364V17.0283ZM60.8232 20.4364C60.6475 20.4364 60.512 20.4137 60.4116 20.367C60.3144 20.3177 60.1802 20.2289 60.0129 20.0961C59.9332 20.0138 59.8587 19.8997 59.7874 19.7415L59.7265 19.5289V19.326C59.7265 19.0195 59.8289 18.7537 60.0343 18.5249C60.2865 18.3123 60.5548 18.2086 60.8368 18.2086C61.0798 18.2086 61.3255 18.3149 61.5738 18.5327C61.8207 18.744 61.9432 19.0123 61.9432 19.3293C61.9432 19.4952 61.9283 19.6197 61.8926 19.7065C61.8557 19.7875 61.8142 19.8562 61.7676 19.9068C61.7436 19.9632 61.6865 20.0215 61.599 20.0941C61.4091 20.3223 61.1498 20.4364 60.8232 20.4364ZM63.2538 20.4364C62.9472 20.4364 62.6802 20.3223 62.4514 20.0935C62.3879 20.0326 62.3094 19.9165 62.2148 19.7545C62.174 19.6112 62.1474 19.4706 62.1338 19.3293C62.1338 19.07 62.2375 18.8023 62.4488 18.5281C62.5032 18.4737 62.627 18.3953 62.8156 18.2877L63.2512 18.2067C63.4969 18.2067 63.7425 18.313 63.9895 18.5268C64.2377 18.742 64.3615 19.0065 64.3615 19.3241C64.3615 19.4926 64.3453 19.6151 64.311 19.7C64.274 19.7888 64.2326 19.8569 64.1872 19.9029C64.1671 19.96 64.1075 20.0241 64.0199 20.0902C63.8333 20.3223 63.5753 20.4364 63.2538 20.4364Z" fill="black"/>
<path d="M70.1529 17.0255V14.8541H73.3153V6.71308L75.7356 5.91064V17.0255H70.1529ZM72.5368 20.4362C72.3884 20.4362 72.262 20.4174 72.1609 20.3778L71.9243 20.2612C71.8699 20.2242 71.8115 20.175 71.7474 20.0914C71.5348 19.9027 71.4311 19.6493 71.4311 19.3252C71.4311 19.0465 71.54 18.782 71.7474 18.5215C71.9839 18.3089 72.2471 18.2104 72.5401 18.2104C72.7968 18.2104 73.0606 18.318 73.3159 18.5215C73.5389 18.7419 73.6491 19.0089 73.6491 19.3252C73.6491 19.4477 73.6251 19.5761 73.5817 19.6947C73.5337 19.8165 73.4462 19.9514 73.3211 20.0881C73.1131 20.3221 72.8519 20.4362 72.5368 20.4362Z" fill="black"/>
<path d="M80.6202 17.0256L80.5833 17.6167C80.5619 17.8494 80.5172 18.038 80.4556 18.1839C80.3428 18.5436 80.1859 18.8917 79.9844 19.2209C79.6441 19.8198 78.8727 20.1174 77.6743 20.1174C77.3353 20.1174 76.8842 20.072 76.3183 19.9741C77.078 19.7161 77.5803 19.3616 77.8182 18.9118C78.0904 18.493 78.2285 18.0393 78.2285 17.5493V17.2213V17.0755V16.9011V6.71186L80.6209 5.90942V14.8335H82.4033V17.0308L80.6202 17.0256Z" fill="black"/>
<path d="M81.671 17.0399V14.8711H84.3473L83.4042 13.4192V8.20788C83.4042 7.43655 83.6434 6.84866 84.123 6.44874C84.3687 6.27503 84.6279 6.1428 84.9014 6.05335C85.1763 5.96196 85.4673 5.91724 85.7726 5.91724H87.8247C88.3627 5.91724 88.8566 6.18104 89.3032 6.70995C89.5061 6.96209 89.659 7.23367 89.7705 7.52406C89.8768 7.81638 89.9274 8.10352 89.9274 8.38677V8.57604V13.4218C89.2222 13.4218 88.631 13.2202 88.1579 12.819C87.7236 12.4003 87.5097 11.802 87.5097 11.0216V8.81845C87.5097 8.6065 87.439 8.42826 87.2971 8.28566C87.1539 8.16899 86.9795 8.08537 86.7669 8.03935H86.6236C86.4363 8.03935 86.2678 8.09898 86.1187 8.21695C85.9696 8.33362 85.8705 8.54363 85.8199 8.84179V13.5119L86.7643 14.873H89.9254H91.7196L90.7039 17.0373L81.671 17.0399Z" fill="black"/>
</svg>
