<svg width="23" height="25" viewBox="0 0 23 25" fill="none" xmlns="http://www.w3.org/2000/svg">
<path d="M9.33333 24.6667C7.86292 24.6667 6.66667 23.4705 6.66667 22.0001C6.66667 20.5297 7.86292 19.3334 9.33333 19.3334C10.8038 19.3334 12 20.5297 12 22.0001C12 23.4705 10.8038 24.6667 9.33333 24.6667ZM9.33333 20.6667C8.59813 20.6667 8 21.2649 8 22.0001C8 22.7353 8.59813 23.3334 9.33333 23.3334C10.0685 23.3334 10.6667 22.7353 10.6667 22.0001C10.6667 21.2649 10.0685 20.6667 9.33333 20.6667Z" fill="#1176AE"/>
<path d="M18.6667 24.6667C17.1963 24.6667 16 23.4705 16 22.0001C16 20.5297 17.1963 19.3334 18.6667 19.3334C20.1371 19.3334 21.3333 20.5297 21.3333 22.0001C21.3333 23.4705 20.1371 24.6667 18.6667 24.6667ZM18.6667 20.6667C17.9315 20.6667 17.3333 21.2649 17.3333 22.0001C17.3333 22.7353 17.9315 23.3334 18.6667 23.3334C19.4019 23.3334 20 22.7353 20 22.0001C20 21.2649 19.4019 20.6667 18.6667 20.6667Z" fill="#1176AE"/>
<path d="M22.0526 3.9555C21.7178 3.56016 21.2126 3.33341 20.6667 3.33341H4.34255L4.21013 2.53899C4.03513 1.48912 3.06435 0.666748 2 0.666748H0.666667C0.29849 0.666748 0 0.965238 0 1.33341C0 1.70159 0.29849 2.00008 0.666667 2.00008H2C2.40943 2.00008 2.82763 2.35433 2.89495 2.75821L5.12323 16.1279C5.29818 17.1777 6.26898 18.0001 7.33331 18.0001H20.6666C21.0348 18.0001 21.3333 17.7016 21.3333 17.3334C21.3333 16.9652 21.0348 16.6667 20.6666 16.6667H7.33331C6.92388 16.6667 6.50568 16.3125 6.43836 15.9087L6.10945 13.9351L19.3961 12.7798C20.4297 12.6899 21.3728 11.8178 21.5434 10.7945L22.4384 5.42487C22.5282 4.88641 22.3876 4.35084 22.0526 3.9555ZM21.1232 5.20565L20.2283 10.5753C20.158 10.9968 19.7063 11.4144 19.2806 11.4515L5.88961 12.6159L4.56477 4.66677H20.6667C20.8221 4.66677 20.953 4.72026 21.0353 4.81735C21.1175 4.91448 21.1488 5.05232 21.1232 5.20565Z" fill="#1176AE"/>
</svg>
