<svg width="22" height="19" viewBox="0 0 22 19" fill="none" xmlns="http://www.w3.org/2000/svg">
<path d="M19.0591 2.19913C16.9302 0.386633 13.7466 0.687414 11.77 2.72648L11.0005 3.52335L10.2309 2.73038C8.6372 1.08195 5.42235 0.0897578 2.94189 2.19913C0.488761 4.29288 0.359854 8.0507 2.55517 10.3163L10.1138 18.121C10.3559 18.371 10.6763 18.4999 10.9966 18.4999C11.3169 18.4999 11.6372 18.3749 11.8794 18.121L19.438 10.3163C21.6411 8.0507 21.5122 4.29288 19.0591 2.19913V2.19913ZM18.5474 9.44913L11.0161 17.2538L3.4536 9.44913C1.9536 7.90226 1.6411 4.95304 3.75439 3.15226C5.89501 1.32413 8.41064 2.64835 9.33251 3.60148L11.0005 5.32413L12.6684 3.60148C13.5747 2.66398 16.1138 1.33585 18.2466 3.15226C20.3559 4.94913 20.0474 7.89835 18.5474 9.44913Z" fill="#F16126" stroke="#1176AE" stroke-width="0.0390625"/>
</svg>
