<svg width="181" height="27" viewBox="0 0 181 27" fill="none" xmlns="http://www.w3.org/2000/svg">
<g clip-path="url(#clip0_0_1703)">
<path d="M44.6241 2.42993H1.48298V24.0299H44.6241V2.42993Z" fill="#F6F6F6"/>
<path d="M41.3885 0C39.2314 0 16.3939 0 3.64003 0C2.56151 0 1.48298 1.08 1.48298 2.16V5.4H44.6241C44.6241 5.4 44.6241 10.4144 44.6241 3.24C44.6241 1.08 43.5455 0 41.3885 0Z" fill="#25256A"/>
<path d="M1.48298 21.6001C1.48298 21.6001 1.48298 21.6001 1.48298 23.7601C1.48298 25.9201 2.56151 27.0001 4.71856 27.0001C16.7503 27.0001 39.2314 27.0001 41.3885 27.0001C43.5455 27.0001 44.6241 25.9201 44.6241 23.7601V21.6001H1.48298Z" fill="#FAB615"/>
<path d="M31.5779 8.04095C30.9731 7.80875 30.0256 7.55981 28.8425 7.55981C25.8269 7.55981 23.7025 9.11366 23.6847 11.3406C23.6677 12.9868 25.2009 13.9051 26.3587 14.4532C27.5464 15.0145 27.946 15.3728 27.9403 15.8742C27.9328 16.6423 26.9912 16.9931 26.1146 16.9931C24.8929 16.9931 24.2439 16.8195 23.242 16.3915L22.8486 16.2095L22.4204 18.7743C23.133 19.0939 24.4513 19.371 25.8199 19.3855C29.0277 19.3855 31.1104 17.8495 31.1341 15.4714C31.1457 14.1681 30.3325 13.1764 28.5721 12.3588C27.5051 11.8288 26.8518 11.4751 26.8588 10.9383C26.8588 10.462 27.4118 9.95309 28.606 9.95309C29.6042 9.93716 30.3271 10.1599 30.8906 10.3918L31.164 10.5241L31.5779 8.04095Z" fill="#25256A"/>
<path d="M39.4037 7.77002H37.0455C36.3151 7.77002 35.7685 7.97414 35.4474 8.72015L30.9149 19.2191H34.1195C34.1195 19.2191 34.6434 17.8073 34.762 17.4976C35.1123 17.4976 38.2257 17.5027 38.6706 17.5027C38.7617 17.9034 39.0419 19.2191 39.0419 19.2191H41.8735L39.4037 7.77002ZM35.6405 15.1542C35.8928 14.4941 36.8565 11.9518 36.8565 11.9518C36.8384 11.9823 37.107 11.2884 37.261 10.8583L37.4675 11.8459C37.4675 11.8459 38.0518 14.5805 38.1739 15.1542H35.6405Z" fill="#25256A"/>
<path d="M17.4587 19.2154L19.3668 7.75903H22.4185L20.509 19.2154H17.4587Z" fill="#25256A"/>
<path d="M14.8991 7.7676L11.9113 15.5798L11.5929 13.9922C11.0367 12.1621 9.30373 10.179 7.36616 9.18645L10.0981 19.2056L13.3272 19.2018L18.1317 7.76733H14.8991" fill="#25256A"/>
<path d="M9.13951 7.76025H4.21846L4.17937 7.99866C8.00787 8.9469 10.5413 11.2387 11.5929 13.9921L10.523 8.72739C10.338 8.00217 9.80227 7.78563 9.13951 7.76025Z" fill="#FAB615"/>
<path d="M100.321 2.53223H57.1795V24.1322H100.321V2.53223Z" fill="#003473"/>
<path d="M97.085 0.102051C94.9279 0.102051 72.0904 0.102051 59.3365 0.102051C58.258 0.102051 57.1795 1.18205 57.1795 2.26205V5.50205H100.321C100.321 5.50205 100.321 10.5162 100.321 3.34205C100.321 1.18205 99.242 0.102051 97.085 0.102051Z" fill="#003473"/>
<path d="M57.1795 21.7021C57.1795 21.7021 57.1795 21.7021 57.1795 23.8621C57.1795 26.0221 58.258 27.1021 60.415 27.1021C72.4468 27.1021 94.9279 27.1021 97.085 27.1021C99.242 27.1021 100.321 26.0221 100.321 23.8621V21.7021H57.1795Z" fill="#003473"/>
<path d="M70.9156 25.218C77.361 25.218 82.5861 19.9671 82.5861 13.4897C82.5861 7.0124 77.361 1.76147 70.9156 1.76147C64.4702 1.76147 59.2451 7.0124 59.2451 13.4897C59.2451 19.9671 64.4702 25.218 70.9156 25.218Z" fill="#ED1C2E"/>
<path d="M86.5844 1.76074C83.5683 1.76074 80.821 2.9104 78.7492 4.79662C78.3278 5.18056 77.9346 5.59582 77.5717 6.03835H79.9288C80.2521 6.43201 80.5474 6.847 80.8186 7.28062H76.6811C76.4336 7.67968 76.2087 8.09305 76.0086 8.52235H81.4911C81.6782 8.92492 81.8432 9.33856 81.985 9.76381H75.5152C75.3801 10.1694 75.2663 10.5833 75.1758 11.0061H82.3245C82.4952 11.8069 82.586 12.6369 82.586 13.4901C82.586 14.792 82.3755 16.0446 81.9856 17.2158H75.5152C75.6562 17.6408 75.8218 18.0558 76.0089 18.4584H81.4913C81.2918 18.8871 81.0669 19.301 80.8181 19.7003H76.6814C76.9516 20.1334 77.2487 20.5484 77.5717 20.9418H79.9288C79.5659 21.3838 79.172 21.7993 78.7497 22.1844C80.821 24.07 83.5672 25.2197 86.5841 25.2197C93.0294 25.2197 98.2549 19.969 98.2549 13.4914C98.2549 7.01386 93.03 1.76074 86.5844 1.76074Z" fill="#FCB131"/>
<path d="M96.6996 20.0272C96.6996 19.8185 96.8687 19.6492 97.0769 19.6492C97.2856 19.6492 97.4533 19.8185 97.4533 20.0272C97.4533 20.2364 97.2856 20.4062 97.0769 20.4062C96.8687 20.4062 96.6996 20.2364 96.6996 20.0272ZM97.0769 20.315C97.2346 20.315 97.3629 20.1862 97.3629 20.0272C97.3629 19.8673 97.2346 19.7399 97.0769 19.7399C96.9191 19.7399 96.7902 19.8676 96.7902 20.0272C96.7902 20.1865 96.9191 20.315 97.0769 20.315ZM97.0259 20.1932H96.9485V19.8611H97.0887C97.1187 19.8611 97.1478 19.8611 97.1739 19.8771C97.2012 19.896 97.216 19.9281 97.216 19.9605C97.216 19.9985 97.1933 20.0334 97.158 20.0469L97.219 20.1935H97.134L97.0825 20.0617H97.0262V20.1932H97.0259ZM97.0259 20.0045H97.069C97.0847 20.0045 97.1014 20.0056 97.117 19.9983C97.1289 19.9888 97.1356 19.9745 97.1356 19.9597C97.1356 19.9475 97.127 19.9321 97.117 19.9259C97.1033 19.9176 97.0822 19.9197 97.0669 19.9197H97.0259V20.0045Z" fill="#FCB131"/>
<path d="M68.1901 14.7733C68.0578 14.7579 67.999 14.7538 67.9078 14.7538C67.1898 14.7538 66.8261 15.0011 66.8261 15.4906C66.8261 15.7922 67.0038 15.9837 67.2804 15.9837C67.7965 15.9829 68.1683 15.4893 68.1901 14.7733ZM69.1123 16.9289C68.9435 16.9289 68.0615 16.9289 68.0615 16.9289L68.0863 16.4275C67.766 16.8236 67.3392 17.0129 66.7581 17.0129C66.0719 17.0129 65.6011 16.474 65.6011 15.6913C65.6011 14.5132 66.4197 13.8261 67.8256 13.8261C67.9696 13.8261 68.1535 13.8393 68.3419 13.8636C68.3813 13.7038 68.3921 13.6357 68.3921 13.5496C68.3921 13.2291 68.1718 13.1095 67.5797 13.1095C66.9595 13.1022 66.4481 13.2583 66.2386 13.3277C66.2512 13.2469 66.4138 12.2398 66.4138 12.2398C67.045 12.053 67.4616 11.9839 67.9302 11.9839C69.0176 11.9839 69.5944 12.4742 69.593 13.4022C69.5955 13.6509 69.5539 13.9573 69.4906 14.3607C69.38 15.0605 69.1441 16.5636 69.1123 16.9289Z" fill="#003473"/>
<path d="M65.0705 16.9289H63.8041L64.5296 12.3565L62.9089 16.9289H62.0452L61.9387 12.3824L61.1759 16.9289H59.9898L60.9807 10.9795H62.8026L62.9132 14.3102L64.0241 10.9795H66.0514L65.0705 16.9289Z" fill="#003473"/>
<path d="M88.1497 14.7733C88.0176 14.7579 87.9588 14.7538 87.8677 14.7538C87.1488 14.7538 86.787 15.0011 86.787 15.4906C86.787 15.7922 86.9639 15.9837 87.2402 15.9837C87.7566 15.9829 88.1284 15.4893 88.1497 14.7733ZM89.0729 16.9289C88.9033 16.9289 88.0224 16.9289 88.0224 16.9289L88.0464 16.4275C87.7256 16.8236 87.299 17.0129 86.7193 17.0129C86.0317 17.0129 85.561 16.474 85.561 15.6913C85.561 14.5132 86.3801 13.8261 87.7865 13.8261C87.9289 13.8261 88.1125 13.8393 88.3015 13.8636C88.3409 13.7038 88.3517 13.6357 88.3517 13.5496C88.3517 13.2291 88.1314 13.1095 87.5395 13.1095C86.9191 13.1022 86.4079 13.2583 86.197 13.3277C86.2102 13.2469 86.3742 12.2398 86.3742 12.2398C87.0054 12.053 87.4217 11.9839 87.8901 11.9839C88.9786 11.9839 89.5534 12.4742 89.5523 13.4022C89.5545 13.6509 89.5138 13.9573 89.4496 14.3607C89.3401 15.0605 89.1042 16.5636 89.0729 16.9289Z" fill="#003473"/>
<path d="M74.7433 16.8563C74.3965 16.9654 74.1261 17.014 73.8333 17.014C73.1856 17.014 72.8319 16.64 72.8319 15.9507C72.8232 15.7371 72.926 15.1739 73.006 14.6609C73.0791 14.2095 73.5558 11.3596 73.5558 11.3596H74.815L74.6681 12.0919H75.4287L75.2567 13.2553H74.4936C74.3475 14.1741 74.1388 15.3205 74.1369 15.4725C74.1369 15.722 74.269 15.8311 74.5702 15.8311C74.7147 15.8311 74.8266 15.8162 74.9118 15.7846L74.7433 16.8563Z" fill="#003473"/>
<path d="M78.6044 16.8166C78.1714 16.9499 77.7548 17.0147 77.3121 17.0137C75.9021 17.012 75.1674 16.2712 75.1674 14.8553C75.1674 13.2023 76.1022 11.9844 77.3724 11.9844C78.4105 11.9844 79.0736 12.6656 79.0736 13.7345C79.0736 14.0904 79.0288 14.436 78.9182 14.9247H76.4104C76.3257 15.6267 76.7722 15.9183 77.5059 15.9183C77.9554 15.9183 78.3625 15.8249 78.8147 15.614L78.6044 16.8166ZM77.8963 13.9484C77.9036 13.8471 78.0301 13.0849 77.3099 13.0849C76.9092 13.0849 76.6223 13.3916 76.5059 13.9484H77.8963Z" fill="#003473"/>
<path d="M69.8721 13.6208C69.8721 14.232 70.1682 14.6543 70.8371 14.9718C71.3502 15.2135 71.43 15.2856 71.43 15.5056C71.43 15.8072 71.2035 15.9438 70.7026 15.9438C70.3245 15.9438 69.9727 15.8842 69.5666 15.7524C69.5666 15.7524 69.4011 16.8186 69.393 16.8699C69.6801 16.9326 69.9379 16.9906 70.7107 17.0133C72.048 17.0133 72.6655 16.5017 72.6655 15.396C72.6655 14.731 72.4066 14.3414 71.7722 14.0471C71.2405 13.803 71.1796 13.7482 71.1796 13.5214C71.1796 13.2598 71.3907 13.1269 71.7992 13.1269C72.048 13.1269 72.3883 13.1534 72.71 13.1993L72.8895 12.0774C72.5625 12.0253 72.0642 11.9827 71.7749 11.9827C70.358 11.9835 69.8678 12.7271 69.8721 13.6208Z" fill="#003473"/>
<path d="M84.7668 12.1106C85.1187 12.1106 85.4466 12.2032 85.8988 12.4324L86.1061 11.1408C85.92 11.067 85.267 10.6372 84.714 10.6372C83.8668 10.6372 83.1485 11.0611 82.6448 11.7582C81.9093 11.5136 81.6073 12.0083 81.2365 12.5007L80.9071 12.5772C80.9321 12.4152 80.9548 12.2537 80.947 12.0909H79.7838C79.6255 13.5886 79.3429 15.1041 79.1234 16.6023L79.0657 16.9287H80.3325C80.5449 15.5477 80.6598 14.6626 80.7313 14.0638L81.2077 13.7986C81.2808 13.5313 81.5027 13.4417 81.9497 13.4517C81.8915 13.767 81.8591 14.0991 81.8591 14.4442C81.8591 16.0278 82.7106 17.013 84.0742 17.013C84.4249 17.013 84.7272 16.9665 85.1939 16.8386L85.4153 15.4832C84.9949 15.69 84.652 15.788 84.3387 15.788C83.6015 15.788 83.1571 15.2418 83.1571 14.3389C83.1579 13.0289 83.8204 12.1106 84.7668 12.1106Z" fill="#003473"/>
<path d="M95.4939 10.9795L95.2113 12.6983C94.8662 12.2407 94.4935 11.9091 94.0031 11.9091C93.3632 11.9091 92.7819 12.3959 92.4006 13.113C91.8697 13.0031 91.3221 12.8147 91.3221 12.8147L91.3213 12.8193C91.3631 12.4186 91.382 12.1745 91.3769 12.0914H90.2134C90.0565 13.5896 89.7734 15.1051 89.5544 16.6044L89.4956 16.9303H90.7637C90.9349 15.8138 91.0654 14.8853 91.1622 14.1496C91.5947 13.7556 91.8128 13.4144 92.2497 13.436C92.0552 13.9074 91.9423 14.449 91.9423 15.0057C91.9423 16.2145 92.5508 17.0129 93.4727 17.0129C93.9373 17.0129 94.2937 16.852 94.6405 16.4783L94.5817 16.9287H95.7805L96.7452 10.9798H95.4939V10.9795ZM93.9092 15.8117C93.4784 15.8117 93.2594 15.4896 93.2594 14.8572C93.2594 13.906 93.6677 13.2318 94.2425 13.2318C94.678 13.2318 94.9139 13.5639 94.9139 14.179C94.9139 15.1391 94.4995 15.8117 93.9092 15.8117Z" fill="#003473"/>
<path d="M65.4353 16.5764H64.1683L64.8944 12.0036L63.2739 16.5764H62.41L62.3033 12.0301L61.5408 16.5764H60.3546L61.3458 10.6274H63.168L63.2181 14.3102L64.4476 10.6274H66.4154L65.4353 16.5764Z" fill="white"/>
<path d="M68.5555 14.4216C68.4228 14.4056 68.3641 14.4021 68.2732 14.4021C67.5554 14.4021 67.1917 14.6484 67.1917 15.1373C67.1917 15.4395 67.3688 15.6309 67.6455 15.6309C68.1616 15.6309 68.5334 15.1371 68.5555 14.4216ZM69.4774 16.5764C69.3078 16.5764 68.4271 16.5764 68.4271 16.5764L68.4511 16.075C68.1311 16.4711 67.704 16.6604 67.1229 16.6604C66.4367 16.6604 65.966 16.1209 65.966 15.3385C65.966 14.1605 66.7851 13.4749 68.191 13.4749C68.3339 13.4749 68.518 13.4871 68.7073 13.5119C68.7464 13.3515 68.7569 13.2835 68.7569 13.1968C68.7569 12.8769 68.5358 12.7578 67.9442 12.7578C67.3238 12.7508 66.8131 12.9055 66.6026 12.9749C66.6155 12.895 66.7783 11.8879 66.7783 11.8879C67.4098 11.7018 67.8264 11.6311 68.2948 11.6311C69.383 11.6311 69.9589 12.1222 69.9581 13.0491C69.96 13.2984 69.9187 13.6062 69.8554 14.0079C69.7454 14.7075 69.5092 16.2103 69.4774 16.5764Z" fill="white"/>
<path d="M86.4715 10.7887L86.2636 12.079C85.812 11.8506 85.4828 11.7583 85.1323 11.7583C84.1858 11.7583 83.5226 12.6766 83.5226 13.9869C83.5226 14.8898 83.968 15.4354 84.7044 15.4354C85.0166 15.4354 85.3617 15.3385 85.7805 15.13L85.5583 16.4857C85.0921 16.614 84.7906 16.6601 84.4396 16.6601C83.0752 16.6601 82.2254 15.6741 82.2254 14.0919C82.2254 11.9646 83.401 10.4788 85.0791 10.4788C85.6316 10.4788 86.2855 10.7142 86.4715 10.7887Z" fill="white"/>
<path d="M88.5145 14.4216C88.3827 14.4056 88.3236 14.4021 88.2319 14.4021C87.5147 14.4021 87.1518 14.6484 87.1518 15.1373C87.1518 15.4395 87.3298 15.6309 87.6048 15.6309C88.1214 15.6309 88.4938 15.1371 88.5145 14.4216ZM89.4372 16.5764C89.2687 16.5764 88.3873 16.5764 88.3873 16.5764L88.4107 16.075C88.0907 16.4711 87.6636 16.6604 87.0839 16.6604C86.3958 16.6604 85.9258 16.1209 85.9258 15.3385C85.9258 14.1605 86.7436 13.4749 88.1494 13.4749C88.2937 13.4749 88.4768 13.4871 88.6661 13.5119C88.7051 13.3515 88.7162 13.2835 88.7162 13.1968C88.7162 12.8769 88.4956 12.7578 87.903 12.7578C87.2834 12.7508 86.7732 12.9055 86.5613 12.9749C86.5753 12.895 86.7376 11.8879 86.7376 11.8879C87.3697 11.7018 87.7862 11.6311 88.2541 11.6311C89.3415 11.6311 89.9188 12.1222 89.9169 13.0491C89.9198 13.2984 89.8786 13.6062 89.8149 14.0079C89.7055 14.7075 89.4695 16.2103 89.4372 16.5764Z" fill="white"/>
<path d="M75.1081 16.503C74.7611 16.6137 74.4906 16.6606 74.1973 16.6606C73.5501 16.6606 73.1964 16.2861 73.1964 15.5979C73.1875 15.3833 73.2897 14.8222 73.3708 14.3081C73.4439 13.8561 73.9198 11.0068 73.9198 11.0068H75.1793L75.0318 11.7385H75.6781L75.5061 12.9012H74.8565C74.7112 13.8224 74.5025 14.9677 74.5001 15.1192C74.5001 15.3698 74.633 15.4778 74.9342 15.4778C75.0782 15.4778 75.1898 15.464 75.2755 15.4324L75.1081 16.503Z" fill="white"/>
<path d="M78.97 16.4644C78.5375 16.5973 78.1191 16.6607 77.6766 16.6602C76.2667 16.6586 75.5325 15.9188 75.5325 14.5018C75.5325 12.8481 76.4668 11.6304 77.7365 11.6304C78.7753 11.6304 79.4386 12.3127 79.4386 13.3819C79.4386 13.7364 79.3923 14.0831 79.2836 14.5707H76.7755C76.6906 15.2738 77.1376 15.5664 77.8699 15.5664C78.3207 15.5664 78.7279 15.4725 79.1787 15.2611L78.97 16.4644ZM78.2614 13.5954C78.2684 13.4947 78.3952 12.7317 77.6755 12.7317C77.274 12.7317 76.9869 13.0395 76.8704 13.5954H78.2614Z" fill="white"/>
<path d="M70.2366 13.269C70.2366 13.8813 70.5322 14.3015 71.2017 14.6195C71.7137 14.8614 71.7943 14.9338 71.7943 15.1533C71.7943 15.4554 71.5678 15.5915 71.0663 15.5915C70.6883 15.5915 70.3375 15.5324 69.9309 15.4006C69.9309 15.4006 69.7648 16.4669 69.7567 16.5176C70.0444 16.5808 70.3016 16.6383 71.076 16.661C72.4126 16.661 73.0298 16.1493 73.0298 15.0442C73.0298 14.3792 72.7715 13.9891 72.1365 13.6964C71.6056 13.4507 71.5444 13.3959 71.5444 13.1707C71.5444 12.9085 71.7555 12.7741 72.1645 12.7741C72.4128 12.7741 72.7529 12.8021 73.0753 12.8472L73.2549 11.7257C72.9273 11.673 72.4296 11.6306 72.1397 11.6306C70.7231 11.6303 70.2329 12.3742 70.2366 13.269Z" fill="white"/>
<path d="M96.1429 16.5765H94.9443L95.0039 16.1256C94.6561 16.4991 94.3002 16.6602 93.8351 16.6602C92.9151 16.6602 92.3057 15.8629 92.3057 14.6525C92.3057 13.0447 93.2502 11.6868 94.3665 11.6868C94.8578 11.6868 95.2304 11.8888 95.5764 12.347L95.8581 10.6282H97.1073L96.1429 16.5765ZM94.274 15.459C94.8643 15.459 95.2782 14.7867 95.2782 13.8285C95.2782 13.2137 95.0422 12.8797 94.6073 12.8797C94.0319 12.8797 93.6245 13.5536 93.6245 14.5051C93.6242 15.1383 93.8429 15.459 94.274 15.459Z" fill="white"/>
<path d="M90.5782 11.739C90.4199 13.2359 90.1382 14.7524 89.9181 16.2507L89.8604 16.5766H91.1272C91.5804 13.6182 91.6896 13.0412 92.4006 13.113C92.5144 12.5079 92.725 11.9777 92.8814 11.7104C92.3508 11.5991 92.0552 11.9004 91.6662 12.4734C91.6972 12.2261 91.7527 11.9849 91.7425 11.7398L90.5782 11.739Z" fill="white"/>
<path d="M80.1486 11.739C79.9898 13.2359 79.7072 14.7524 79.4872 16.2507L79.4295 16.5766H80.697C81.1508 13.6182 81.2595 13.0412 81.9697 13.113C82.0835 12.5079 82.294 11.9777 82.4512 11.7104C81.9209 11.5991 81.624 11.9004 81.2365 12.4734C81.267 12.2261 81.3231 11.9849 81.3112 11.7398L80.1486 11.739Z" fill="white"/>
<path d="M96.6997 16.1971C96.6997 15.9874 96.8688 15.8186 97.0762 15.8186C97.2848 15.8186 97.4528 15.9874 97.4528 16.1971C97.4528 16.4059 97.2848 16.5762 97.0762 16.5762C96.8688 16.5765 96.6997 16.4061 96.6997 16.1971ZM97.0759 16.4852C97.2347 16.4852 97.3628 16.3559 97.3628 16.1974C97.3628 16.0392 97.2344 15.9096 97.0759 15.9096C96.9179 15.9096 96.7895 16.0392 96.7895 16.1974C96.7898 16.3559 96.9179 16.4852 97.0759 16.4852ZM97.0252 16.3629H96.9486V16.0308H97.0888C97.1188 16.0308 97.1473 16.0319 97.1732 16.0478C97.2013 16.0657 97.2156 16.0981 97.2156 16.1313C97.2156 16.1688 97.1937 16.2042 97.1584 16.2171L97.2193 16.3632H97.1333L97.0823 16.2314H97.0257V16.3629H97.0252ZM97.0252 16.1745H97.0681C97.0834 16.1745 97.1015 16.1766 97.1152 16.1683C97.1282 16.1593 97.1347 16.1445 97.1347 16.1302C97.1347 16.1175 97.1271 16.1032 97.1171 16.0959C97.1034 16.087 97.0818 16.0897 97.067 16.0897H97.0252V16.1745Z" fill="white"/>
<path d="M179.305 23.7006C179.305 25.4899 177.856 26.9406 176.07 26.9406H114.728C112.941 26.9406 111.493 25.4899 111.493 23.7006V3.34181C111.493 1.55252 112.941 0.101807 114.728 0.101807H176.07C177.856 0.101807 179.305 1.55252 179.305 3.34181V23.7006Z" fill="#ABABAB"/>
<path d="M144.024 12.0594C143.728 12.2079 143.134 12.3564 142.372 12.3564C140.608 12.3564 139.281 11.2407 139.281 9.18632C139.281 7.22504 140.608 5.89502 142.548 5.89502C143.33 5.89502 143.821 6.06188 144.034 6.17258L143.84 6.83489C143.534 6.68531 143.097 6.57461 142.577 6.57461C141.111 6.57461 140.136 7.5134 140.136 9.15716C140.136 10.6924 141.018 11.6773 142.541 11.6773C143.033 11.6773 143.534 11.5755 143.86 11.4173L144.024 12.0594Z" fill="black"/>
<path d="M146.086 10.2924L145.436 12.2623H144.601L146.726 5.99585H147.701L149.836 12.2623H148.973L148.305 10.2924H146.086ZM148.138 9.66002L147.527 7.85615C147.385 7.44818 147.294 7.07531 147.199 6.71243H147.182C147.088 7.0853 146.987 7.46573 146.865 7.84724L146.254 9.66002H148.138Z" fill="black"/>
<path d="M150.645 11.2777C151.008 11.5013 151.537 11.6873 152.094 11.6873C152.919 11.6873 153.404 11.2504 153.404 10.6176C153.404 10.0322 153.069 9.69821 152.223 9.37205C151.203 9.00971 150.573 8.4797 150.573 7.59626C150.573 6.62129 151.38 5.89526 152.596 5.89526C153.236 5.89526 153.701 6.04268 153.98 6.20198L153.756 6.86105C153.552 6.74954 153.135 6.56405 152.567 6.56405C151.713 6.56405 151.388 7.0757 151.388 7.50284C151.388 8.0882 151.77 8.37656 152.631 8.71163C153.69 9.12041 154.227 9.63098 154.227 10.5517C154.227 11.5188 153.513 12.3556 152.035 12.3556C151.434 12.3556 150.773 12.1792 150.439 11.9568L150.645 11.2777Z" fill="black"/>
<path d="M156.142 5.99756V8.61899H159.17V5.99756H159.984V12.264H159.17V9.32612H156.142V12.2643H155.334V5.99756H156.142Z" fill="black"/>
<path d="M168.703 9.0659C168.703 11.2213 167.394 12.365 165.798 12.365C164.144 12.365 162.984 11.0825 162.984 9.18632C162.984 7.19777 164.219 5.89502 165.891 5.89502C167.599 5.89475 168.703 7.2056 168.703 9.0659ZM163.847 9.16796C163.847 10.5061 164.571 11.7057 165.844 11.7057C167.126 11.7057 167.851 10.5244 167.851 9.10289C167.851 7.8563 167.2 6.55517 165.854 6.55517C164.516 6.55517 163.847 7.79204 163.847 9.16796Z" fill="black"/>
<path d="M169.754 12.2621V5.99756H170.636L172.641 9.16763C173.107 9.90257 173.467 10.5627 173.766 11.2034L173.784 11.1937C173.71 10.357 173.69 9.59477 173.69 8.61899V5.99756H174.452V12.264H173.634L171.648 9.0842C171.212 8.38706 170.793 7.67156 170.477 6.99386L170.45 7.00169C170.496 7.79306 170.516 8.54636 170.516 9.58613V12.264H169.754V12.2621H169.754Z" fill="black"/>
<path d="M139.651 15.9246C140.144 15.8509 140.728 15.7944 141.37 15.7944C142.531 15.7944 143.356 16.0644 143.904 16.5753C144.462 17.0861 144.786 17.8121 144.786 18.8257C144.786 19.8471 144.47 20.6841 143.885 21.2609C143.3 21.8476 142.335 22.1621 141.118 22.1621C140.542 22.1621 140.06 22.1348 139.651 22.0884V15.9246H139.651ZM140.459 21.4669C140.664 21.5039 140.961 21.5136 141.277 21.5136C143.002 21.5136 143.941 20.5464 143.941 18.8549C143.951 17.375 143.115 16.4373 141.406 16.4373C140.99 16.4373 140.674 16.4743 140.459 16.521V21.4669Z" fill="black"/>
<path d="M149.076 19.1694H146.643V21.4274H149.354V22.1075H145.836V15.8411H149.216V16.5209H146.642V18.4998H149.076V19.1694H149.076Z" fill="black"/>
<path d="M150.403 15.8411H151.209V21.4274H153.883V22.1075H150.403V15.8411Z" fill="black"/>
<path d="M155.592 15.8411V22.1075H154.785V15.8411H155.592Z" fill="black"/>
<path d="M158.38 22.1075L156.337 15.8411H157.209L158.185 18.9266C158.452 19.7736 158.685 20.5366 158.852 21.2705H158.871C159.048 20.5464 159.307 19.7563 159.587 18.9363L160.644 15.8411H161.508L159.27 22.1075H158.38Z" fill="black"/>
<path d="M165.426 19.1694H162.993V21.4274H165.705V22.1075H162.185V15.8411H165.563V16.5209H162.991V18.4998H165.425V19.1694H165.426Z" fill="black"/>
<path d="M166.754 15.9246C167.163 15.8409 167.747 15.7944 168.305 15.7944C169.168 15.7944 169.727 15.9518 170.115 16.3053C170.431 16.5847 170.607 17.0121 170.607 17.4957C170.607 18.3227 170.087 18.8724 169.428 19.0938V19.1211C169.911 19.288 170.198 19.7345 170.347 20.3852C170.551 21.2592 170.7 21.8632 170.83 22.1057H169.994C169.891 21.9272 169.754 21.3894 169.575 20.6085C169.391 19.7445 169.057 19.4203 168.325 19.3908H167.562V22.1038H166.756V15.9246H166.754ZM167.562 18.7793H168.387C169.249 18.7793 169.798 18.3054 169.798 17.5889C169.798 16.7813 169.215 16.4276 168.36 16.4179C167.97 16.4179 167.692 16.4549 167.562 16.4937V18.7793Z" fill="black"/>
<path d="M173.039 22.1075V19.4469L171.061 15.8411H171.98L172.864 17.5691C173.105 18.0451 173.291 18.4255 173.485 18.8624H173.502C173.681 18.4528 173.894 18.0451 174.135 17.5691L175.036 15.8411H175.954L173.857 19.4372V22.1075H173.039Z" fill="black"/>
<path d="M134.869 18.2255C134.624 18.0076 134.317 17.9069 134.005 17.942C133.481 18.0022 132.793 18.1437 132.067 18.2933C131.086 18.4953 130.07 18.705 129.294 18.7558C128.621 18.7963 127.4 18.6219 127.038 18.4334C126.794 18.3033 126.657 18.1478 126.579 18.0079H128.087C128.709 18.0079 129.215 17.5014 129.215 16.8777V15.9924C129.215 15.3689 128.709 14.8624 128.087 14.8624H123.958C123.783 14.8581 121.675 14.8176 120.216 16.0642C119.957 16.2856 119.752 16.4935 119.589 16.6836C119.416 16.464 119.149 16.3266 118.851 16.3266H117.506C117.281 16.3266 117.101 16.5089 117.101 16.7324V22.4529C117.101 22.5598 117.143 22.6646 117.219 22.7383C117.295 22.8161 117.398 22.8587 117.506 22.8587H118.851C119.371 22.8587 119.796 22.4335 119.796 21.9129V21.6003C120.198 21.6259 121.111 21.7266 123.041 22.0879C125.321 22.5169 126.744 22.6649 127.865 22.6627C128.668 22.6627 129.317 22.589 130.014 22.4896C130.877 22.3695 131.962 22.0606 132.919 21.7906C133.361 21.6645 133.78 21.546 134.15 21.4528C135.148 21.2004 135.296 20.5691 135.296 20.216V19.1865C135.296 18.8214 135.137 18.4642 134.869 18.2255ZM118.987 21.9129C118.987 21.9885 118.925 22.049 118.851 22.049H117.909V17.1382H118.851C118.925 17.1382 118.987 17.2001 118.987 17.274V21.9129ZM134.489 20.2179C134.489 20.3032 134.489 20.5327 133.953 20.6685C133.57 20.7635 133.148 20.8839 132.698 21.0117C131.766 21.276 130.71 21.5751 129.902 21.6896C128.312 21.9151 126.985 22.0061 123.192 21.2957C121.241 20.9285 120.273 20.8175 119.796 20.7927V17.7846C119.812 17.7673 119.825 17.7476 119.837 17.7266C119.939 17.5362 120.196 17.1493 120.742 16.6817C121.99 15.6176 123.917 15.6719 123.937 15.674C123.942 15.674 123.947 15.674 123.953 15.674H128.089C128.265 15.674 128.408 15.8174 128.408 15.9924V16.8798C128.408 17.0564 128.265 17.1984 128.089 17.1984H123.953C123.73 17.1984 123.548 17.3791 123.548 17.6043C123.548 17.8257 123.73 18.0079 123.953 18.0079H125.724C125.808 18.3403 126.036 18.8201 126.666 19.1481C127.241 19.4511 128.667 19.6066 129.346 19.5618C130.182 19.5094 131.225 19.2955 132.234 19.086C132.942 18.9402 133.613 18.8041 134.101 18.7458C134.204 18.7345 134.285 18.7847 134.333 18.8298C134.431 18.9151 134.492 19.055 134.492 19.1867V20.2179H134.489Z" fill="black"/>
<path d="M134.633 5.70044H120.427C119.855 5.70044 119.391 6.16646 119.391 6.7394V13.4097C119.391 13.9819 119.855 14.4484 120.427 14.4484H134.633C135.205 14.4484 135.671 13.9816 135.671 13.4097V6.7394C135.671 6.16646 135.205 5.70044 134.633 5.70044ZM132.627 13.6379H122.434C122.327 12.431 121.39 11.4593 120.198 11.3008V8.7374C121.353 8.58404 122.269 7.6655 122.422 6.51098H132.638C132.792 7.66739 133.707 8.58377 134.862 8.7374V11.3008C133.67 11.459 132.733 12.431 132.627 13.6379ZM134.862 6.7394V7.91795C134.155 7.77809 133.596 7.22 133.458 6.51125H134.633C134.759 6.51125 134.862 6.61331 134.862 6.7394ZM120.427 6.51125H121.603C121.465 7.22 120.907 7.77836 120.2 7.91795V6.7394C120.198 6.61331 120.301 6.51125 120.427 6.51125ZM120.198 13.4097V12.12C120.942 12.2658 121.522 12.8776 121.621 13.6368H120.426C120.301 13.6379 120.198 13.5358 120.198 13.4097ZM134.633 13.6379H133.438C133.538 12.8776 134.117 12.2668 134.862 12.121V13.4095C134.862 13.5358 134.759 13.6379 134.633 13.6379Z" fill="black"/>
<path d="M127.551 7.177C125.955 7.177 124.658 8.47705 124.658 10.0741C124.658 11.673 125.955 12.9712 127.551 12.9712C129.145 12.9712 130.444 11.673 130.444 10.0741C130.444 8.47624 129.147 7.177 127.551 7.177ZM127.551 12.1617C126.401 12.1617 125.467 11.2248 125.467 10.0744C125.467 8.9239 126.401 7.98781 127.551 7.98781C128.701 7.98781 129.635 8.9239 129.635 10.0744C129.635 11.2251 128.701 12.1617 127.551 12.1617Z" fill="black"/>
<path d="M122.895 8.82861C122.208 8.82861 121.65 9.3867 121.65 10.0744C121.65 10.7607 122.209 11.3202 122.895 11.3202C123.58 11.3202 124.138 10.7607 124.138 10.0744C124.138 9.38697 123.58 8.82861 122.895 8.82861ZM122.895 10.5104C122.655 10.5104 122.46 10.3142 122.46 10.0744C122.46 9.83382 122.655 9.63861 122.895 9.63861C123.133 9.63861 123.329 9.83463 123.329 10.0744C123.329 10.3142 123.135 10.5104 122.895 10.5104Z" fill="black"/>
<path d="M132.207 8.82861C131.522 8.82861 130.964 9.3867 130.964 10.0744C130.964 10.7607 131.522 11.3202 132.207 11.3202C132.893 11.3202 133.452 10.7607 133.452 10.0744C133.452 9.38697 132.893 8.82861 132.207 8.82861ZM132.207 10.5104C131.967 10.5104 131.773 10.3142 131.773 10.0744C131.773 9.83382 131.967 9.63861 132.207 9.63861C132.447 9.63861 132.643 9.83463 132.643 10.0744C132.643 10.3142 132.447 10.5104 132.207 10.5104Z" fill="black"/>
</g>
<defs>
<clipPath id="clip0_0_1703">
<rect width="180.474" height="27" fill="white"/>
</clipPath>
</defs>
</svg>
